<svg width="174" height="18" viewBox="0 0 174 18" fill="none" xmlns="http://www.w3.org/2000/svg">
<path d="M0.6 0.303999H4.6V18H0.6V0.303999ZM7.1475 0.303999H11.5955L17.4195 14.416H18.2835L24.0755 0.303999H28.4595L20.7155 18H14.9235L7.1475 0.303999ZM31.0063 0.303999H35.0063V18H31.0063V0.303999ZM37.5538 0.303999H55.9538V3.888H48.7538V18H44.7538V3.888H37.5538V0.303999ZM65.1993 3.856L61.9033 11.824H69.7753L66.5753 3.856H65.1993ZM62.7033 0.303999H69.1993L76.7193 18H72.4953L71.3433 15.312H60.4313L59.2793 18H54.9913L62.7033 0.303999ZM88.5063 18V0.303999H104.73V3.92H92.5063V7.6H103.322V11.216H92.5063V18H88.5063ZM115.668 3.856L112.372 11.824H120.244L117.044 3.856H115.668ZM113.172 0.303999H119.668L127.188 18H122.964L121.812 15.312H110.9L109.748 18H105.46L113.172 0.303999ZM129.756 0.303999H140.188C142.3 0.303999 144.039 0.954666 145.404 2.256C146.791 3.536 147.484 5.2 147.484 7.248C147.484 9.936 146.343 11.8987 144.06 13.136L146.78 18H142.428L140.348 14.064H133.756V18H129.756V0.303999ZM133.756 3.952V10.416H140.028C141.074 10.416 141.906 10.1387 142.524 9.584C143.164 9.02933 143.484 8.25067 143.484 7.248C143.484 6.24533 143.164 5.44533 142.524 4.848C141.906 4.25067 141.074 3.952 140.028 3.952H133.756ZM150.069 0.303999H155.413L161.621 13.136H161.781L168.245 0.303999H173.365V18H169.429V5.616H169.237L163.253 18H159.893L154.133 5.616H153.941V18H150.069V0.303999Z" fill="#2E85FF"/>
</svg>
