<svg width="22" height="21" viewBox="0 0 22 21" fill="none" xmlns="http://www.w3.org/2000/svg">
<g clip-path="url(#clip0_15_146)">
<path fill-rule="evenodd" clip-rule="evenodd" d="M10.5529 20.6484C10.5529 15.3384 5.88203 11.0094 0.0335693 10.8028V10.786C5.88179 10.5792 10.5523 6.25033 10.5523 0.940443C10.5523 0.841621 10.5507 0.743141 10.5475 0.64502H10.5619C10.5586 0.743406 10.557 0.842154 10.557 0.941244C10.557 6.35631 15.4152 10.751 21.4261 10.7935C15.4152 10.8359 10.557 15.231 10.557 20.6465V20.6473H10.5529V20.6484ZM21.7283 10.795L21.6687 10.7941L21.6018 10.7935C21.644 10.7932 21.6862 10.7926 21.7283 10.7919V10.795Z" fill="#2E85FF"/>
</g>
<defs>
<clipPath id="clip0_15_146">
<rect width="22" height="21" fill="white"/>
</clipPath>
</defs>
</svg>
